<?xml version="1.0" encoding="UTF-8" standalone="no"?>
<svg
   xmlns:dc="http://purl.org/dc/elements/1.1/"
   xmlns:cc="http://creativecommons.org/ns#"
   xmlns:rdf="http://www.w3.org/1999/02/22-rdf-syntax-ns#"
   xmlns:svg="http://www.w3.org/2000/svg"
   xmlns="http://www.w3.org/2000/svg"
   xmlns:sodipodi="http://sodipodi.sourceforge.net/DTD/sodipodi-0.dtd"
   xmlns:inkscape="http://www.inkscape.org/namespaces/inkscape"
   aria-hidden="true"
   data-prefix="fab"
   data-icon="twitter"
   class="svg-inline--fa fa-twitter fa-w-16"
   role="img"
   viewBox="0 0 512 512"
   version="1.1"
   id="svg3767"
   sodipodi:docname="twitter-brands-red.svg"
   inkscape:version="0.92.3 (2405546, 2018-03-11)">
  <metadata
     id="metadata3773">
    <rdf:RDF>
      <cc:Work
         rdf:about="">
        <dc:format>image/svg+xml</dc:format>
        <dc:type
           rdf:resource="http://purl.org/dc/dcmitype/StillImage" />
        <dc:title></dc:title>
      </cc:Work>
    </rdf:RDF>
  </metadata>
  <defs
     id="defs3771" />
  <sodipodi:namedview
     pagecolor="#ffffff"
     bordercolor="#666666"
     borderopacity="1"
     objecttolerance="10"
     gridtolerance="10"
     guidetolerance="10"
     inkscape:pageopacity="0"
     inkscape:pageshadow="2"
     inkscape:window-width="640"
     inkscape:window-height="480"
     id="namedview3769"
     showgrid="false"
     inkscape:zoom="0.4609375"
     inkscape:cx="256"
     inkscape:cy="256"
     inkscape:window-x="0"
     inkscape:window-y="0"
     inkscape:window-maximized="0"
     inkscape:current-layer="svg3767" />
  <path
     fill="currentColor"
     d="M459.37 151.716c.325 4.548.325 9.097.325 13.645 0 138.72-105.583 298.558-298.558 298.558-59.452 0-114.68-17.219-161.137-47.106 8.447.974 16.568 1.299 25.34 1.299 49.055 0 94.213-16.568 130.274-44.832-46.132-.975-84.792-31.188-98.112-72.772 6.498.974 12.995 1.624 19.818 1.624 9.421 0 18.843-1.3 27.614-3.573-48.081-9.747-84.143-51.98-84.143-102.985v-1.299c13.969 7.797 30.214 12.67 47.431 13.319-28.264-18.843-46.781-51.005-46.781-87.391 0-19.492 5.197-37.36 14.294-52.954 51.655 63.675 129.3 105.258 216.365 109.807-1.624-7.797-2.599-15.918-2.599-24.04 0-57.828 46.782-104.934 104.934-104.934 30.213 0 57.502 12.67 76.67 33.137 23.715-4.548 46.456-13.32 66.599-25.34-7.798 24.366-24.366 44.833-46.132 57.827 21.117-2.273 41.584-8.122 60.426-16.243-14.292 20.791-32.161 39.308-52.628 54.253z"
     id="path3765" />
  <path
     style="fill:#ff0000;stroke-width:2.16949153"
     d="M 114.98305,459.35006 C 86.072114,454.54288 59.61743,446.00105 32.542373,432.73116 L 7.5932203,420.50319 33.205821,418.86353 c 29.380582,-1.88088 53.407876,-7.38067 77.219269,-17.67534 16.18456,-6.99726 45.7783,-24.93829 45.7783,-27.75281 0,-0.77017 -6.1017,-2.0367 -13.55932,-2.8145 -29.93819,-3.12247 -62.93215,-26.63444 -77.290646,-55.07847 l -6.719774,-13.31178 19.089048,-0.0304 c 10.498974,-0.0173 20.731305,-0.66054 22.738512,-1.43077 4.38254,-1.68175 2.73367,-5.28406 -2.419755,-5.28647 -7.116779,-0.004 -29.837902,-12.49833 -40.916077,-22.50097 -19.51255,-17.61809 -31.231726,-39.68688 -34.356687,-64.69821 l -1.533933,-12.27719 12.704655,5.05417 c 6.987561,2.77979 18.074146,5.73266 24.636858,6.56193 l 11.932204,1.50777 -12.206378,-10.99466 C 37.715749,179.5931 26.094206,157.03121 22.895524,129.39807 21.1891,114.65641 25.468227,90.173401 31.964262,77.511326 l 4.083159,-7.958899 9.526743,10.457685 c 50.65631,55.606378 116.848856,88.459628 195.985596,97.273228 12.36343,1.37693 12.64054,1.29271 11.15428,-3.39004 -0.83827,-2.64114 -1.45416,-12.72962 -1.36866,-22.41887 0.26296,-29.80094 10.20301,-52.244018 32.59808,-73.601356 38.85126,-37.050975 99.58689,-37.980943 139.31885,-2.133216 l 7.80468,7.04169 15.91378,-4.409936 c 8.75258,-2.425465 23.05742,-7.710501 31.78854,-11.744524 8.73112,-4.034024 15.87476,-6.802566 15.87476,-6.152315 0,0.650251 -3.08669,6.973497 -6.85931,14.051658 -6.32046,11.858396 -29.61731,36.551539 -34.48469,36.551539 -1.12521,0 -2.04583,0.83047 -2.04583,1.84548 0,2.49629 19.4512,-0.74316 37.65317,-6.27084 8.18044,-2.48429 15.39732,-3.99308 16.03751,-3.35287 1.93797,1.93794 -18.51522,24.50711 -33.14896,36.57841 l -13.74165,11.33541 -0.14579,20.77024 c -0.52104,74.22212 -33.67881,151.18294 -88.81659,206.1476 -41.47526,41.34501 -84.14089,64.7112 -142.38007,77.97556 -25.98502,5.91828 -85.28761,7.63962 -111.72881,3.2431 z"
     id="path3775"
     inkscape:connector-curvature="0" />
</svg>
